# xmcd
# 
# Track frame offsets:
#     150
#     21770
#     42267
# 
# Disc length: 850
# 
# Revision: 2
# Processed by: cddbd v1.5.2PL0 Copyright (c) Steve Scherf et al.
# Submitted via: fre:ac v1.0.31
# 
DISCID=1b035003
DTITLE=Λucifer - Cの微熱
DYEAR=1999
DGENRE=Rock
TTITLE0=Cの微熱
TTITLE1=PLASMAGIC
TTITLE2=Cの微熱（off vocal version）
EXTD=YEAR: 1999
EXTT0=
EXTT1=
EXTT2=
PLAYORDER=
